<svg viewBox="0 0 165.31 52.19" xmlns="http://www.w3.org/2000/svg"><g fill="#009fe8"><path d="m0 1.61h26.72v2.57h-23.93v14.76h21.51v2.57h-21.51v15.08h24.21v2.57h-27z"/><path d="m32 21.72h14.4v2.58h-14.4z"/><path d="m51.35 35.73 1.56-2.09a16.07 16.07 0 0 0 9.81 3.59c3.71 0 6.61-2 6.61-5.2v-.11c0-3.22-3.44-4.4-7.25-5.47-4.45-1.29-9.39-2.63-9.39-7.51v-.11c0-4.4 3.71-7.56 9-7.56a18.52 18.52 0 0 1 9.71 3l-1.4 2.2a15.72 15.72 0 0 0 -8.42-2.74c-3.76 0-6.22 2-6.22 4.78v.11c0 3.05 3.7 4.18 7.61 5.31 4.4 1.23 9 2.84 9 7.67v.1c0 4.89-4.19 8-9.45 8a18.76 18.76 0 0 1 -11.17-3.97z"/><path d="m80.52 32.14v-17.92h-4v-2.42h4v-8.74h2.63v8.74h9.6v2.42h-9.6v17.65c0 3.91 2.31 5.31 5.47 5.31a9.11 9.11 0 0 0 4-1v2.47a10.06 10.06 0 0 1 -4.45 1c-4.17-.01-7.65-2.31-7.65-7.51z"/><path d="m98 46.73.91-2.31a9.5 9.5 0 0 0 4.66 1c2.85 0 4.72-1.66 6.76-6.44l-13.15-27.18h3.06l11.37 24.47 9.87-24.47h2.9l-11.86 28.33c-2.41 5.74-5.2 7.78-9.12 7.78a12.33 12.33 0 0 1 -5.4-1.18z"/><path d="m130.07 0h2.63v39.16h-2.63z"/><path d="m139.78 25.54v-.11c0-7.94 5.58-14.27 13-14.27 7.67 0 12.55 6.22 12.55 14.32a7.18 7.18 0 0 1 -.05 1.07h-22.71c.48 6.82 5.36 10.79 10.73 10.79a12.31 12.31 0 0 0 9.39-4.29l1.82 1.61a14.39 14.39 0 0 1 -11.32 5.14c-7.19 0-13.41-5.74-13.41-14.26zm22.69-1.35c-.37-5.52-3.54-10.62-9.82-10.62-5.41 0-9.6 4.56-10.08 10.62z"/></g><g fill="#3e3a39"><path d="m.56 45.94h1.84c1.11 0 1.88.57 1.88 1.55 0 1.06-.92 1.61-2 1.61h-1.34v1.9h-.38zm1.76 2.83c.94 0 1.58-.49 1.58-1.24 0-.8-.62-1.22-1.53-1.22h-1.43v2.48z"/><path d="m5.29 47.32h.36v1a1.73 1.73 0 0 1 1.63-1.11v.39a1.64 1.64 0 0 0 -1.6 1.85v1.55h-.39z"/><path d="m7.75 49.18a1.91 1.91 0 0 1 1.91-1.93 1.89 1.89 0 0 1 1.89 1.92 1.9 1.9 0 1 1 -3.8 0zm3.42 0a1.55 1.55 0 0 0 -1.53-1.6 1.53 1.53 0 0 0 -1.5 1.59 1.55 1.55 0 0 0 1.52 1.6 1.52 1.52 0 0 0 1.51-1.59z"/><path d="m12.44 49.18a1.84 1.84 0 0 1 1.79-1.93 1.76 1.76 0 0 1 1.52.89v-2.41h.36v5.27h-.36v-.83a1.78 1.78 0 0 1 -1.52.92 1.83 1.83 0 0 1 -1.79-1.91zm3.33 0a1.54 1.54 0 0 0 -1.5-1.59 1.44 1.44 0 0 0 -1.45 1.58 1.5 1.5 0 0 0 1.45 1.6 1.54 1.54 0 0 0 1.5-1.6z"/><path d="m17.4 49.58v-2.26h.36v2.19a1.13 1.13 0 0 0 1.17 1.26 1.27 1.27 0 0 0 1.29-1.32v-2.13h.35v3.68h-.35v-.69a1.45 1.45 0 0 1 -1.34.78 1.41 1.41 0 0 1 -1.48-1.51z"/><path d="m21.68 49.18a1.9 1.9 0 0 1 3.32-1.27l-.25.26a1.69 1.69 0 0 0 -1.23-.61 1.52 1.52 0 0 0 -1.49 1.59 1.55 1.55 0 0 0 1.52 1.6 1.64 1.64 0 0 0 1.24-.61l.25.21a1.89 1.89 0 0 1 -3.39-1.18z"/><path d="m25.74 49.17a1.82 1.82 0 0 1 1.75-1.93 1.75 1.75 0 0 1 1.69 1.93v.15h-3.07a1.47 1.47 0 0 0 1.45 1.45 1.66 1.66 0 0 0 1.27-.58l.24.22a1.9 1.9 0 0 1 -1.52.7 1.84 1.84 0 0 1 -1.81-1.94zm3.06-.17a1.36 1.36 0 0 0 -1.33-1.43 1.44 1.44 0 0 0 -1.36 1.43z"/><path d="m30 49.18a1.84 1.84 0 0 1 1.79-1.93 1.76 1.76 0 0 1 1.52.89v-2.41h.36v5.27h-.36v-.83a1.77 1.77 0 0 1 -1.52.92 1.83 1.83 0 0 1 -1.79-1.91zm3.34 0a1.55 1.55 0 0 0 -1.51-1.59 1.45 1.45 0 0 0 -1.45 1.58 1.5 1.5 0 0 0 1.45 1.6 1.55 1.55 0 0 0 1.55-1.6z"/><path d="m37.66 50.21v.79h-.36v-5.27h.36v2.41a1.79 1.79 0 0 1 1.52-.91 1.83 1.83 0 0 1 1.82 1.92 1.85 1.85 0 0 1 -1.79 1.94 1.76 1.76 0 0 1 -1.55-.88zm2.93-1a1.48 1.48 0 0 0 -1.45-1.59 1.54 1.54 0 0 0 -1.5 1.59 1.54 1.54 0 0 0 1.5 1.59 1.44 1.44 0 0 0 1.45-1.62z"/><path d="m41.59 52 .12-.31a1.36 1.36 0 0 0 .63.14c.38 0 .64-.23.91-.87l-1.77-3.67h.41l1.54 3.3 1.33-3.3h.39l-1.6 3.82c-.33.77-.7 1-1.23 1a1.6 1.6 0 0 1 -.73-.11z"/><path d="m48.72 47.27h4.46v.78h.39v-1.12h-1.29a11.65 11.65 0 0 0 .82-1l-.37-.18a8.79 8.79 0 0 1 -.91 1.22h-2.35l.25-.12a4.29 4.29 0 0 0 -.65-1l-.3.17a3.77 3.77 0 0 1 .6 1h-1v1.12h.37z"/><path d="m51.32 48.63h2v-.34h-2.21v-.87h-.38v.87h-2.13v.34h1.93a5.78 5.78 0 0 1 -2.3 2.07l.27.31a6.41 6.41 0 0 0 2.24-2v2.3h.38v-2.31a5.61 5.61 0 0 0 2.33 2l.27-.33a5.17 5.17 0 0 1 -2.4-2.04z"/><path d="m50.85 46.89.36-.16a4.11 4.11 0 0 0 -.58-1.05l-.32.16a4.1 4.1 0 0 1 .54 1.05z"/><path d="m58.43 47.68a13.12 13.12 0 0 0 1-1.55l-.33-.13a10.84 10.84 0 0 1 -1 1.55l.32.16z"/><path d="m56 47.68.35-.16a6.69 6.69 0 0 0 -.9-1.54l-.31.16a6 6 0 0 1 .86 1.54z"/><path d="m59.66 50c0 .79 0 .82-.35.83h-1c-.26 0-.34-.06-.34-.36v-2.15h2v-.32h-2.6v-2.31h-.37v2.31h-2.53v.34h1.85a2.51 2.51 0 0 1 -1.88 2.66l.27.29c1.52-.53 1.89-1.48 2-2.94h.89v2.11c0 .57.14.72.68.73h1.08c.55 0 .63-.14.67-1.13z"/><path d="m62.75 47.55v-1.67h-.4v1.73l-1.48.2.05.37 1.43-.2v1.89c0 .68.3 1 .93 1.07h1.07 1.32v-.4a12.92 12.92 0 0 1 -1.43.07c-.38 0-.66 0-.83 0-.49 0-.66-.24-.66-.75v-1.93l2.55-.35a16.81 16.81 0 0 1 -1.06 1.59l.34.18a23.14 23.14 0 0 0 1.29-2l-.29-.18z"/><path d="m65.67 45.59-.19.16a4.15 4.15 0 0 1 .64.83l.21-.15a4.82 4.82 0 0 0 -.66-.84z"/><path d="m65.49 46.94.21-.16a4.31 4.31 0 0 0 -.7-.78l-.19.15a4.24 4.24 0 0 1 .68.79z"/><path d="m70.65 48.91.17-.36a21.08 21.08 0 0 0 -3-.92l-.12.36a16.83 16.83 0 0 1 2.91.91z"/><path d="m67.25 49.34-.14.38a17.77 17.77 0 0 1 3.78 1.37l.22-.37a22.31 22.31 0 0 0 -3.86-1.38z"/><path d="m67.72 45.88-.12.37a20 20 0 0 1 3.52 1l.17-.37a22.57 22.57 0 0 0 -3.57-1z"/><path d="m75.31 45.89h-.4v1.52h-2.59v.38h2.59a2.79 2.79 0 0 1 -1.79 3l.3.32a3.16 3.16 0 0 0 1.9-3.28h2v-.38h-2z"/><path d="m78.03 48.28h4.95v.41h-4.95z"/><path d="m84.78 48.17a2.66 2.66 0 0 1 -1.39 2.55l.3.29a3 3 0 0 0 1.5-2.82v-1.94h-.4z"/><path d="m88.76 48.57a6.23 6.23 0 0 1 -1.85 1.65v-4.06h-.41v4.46l.31.18a7.85 7.85 0 0 0 2.19-1.8z"/></g></svg>